<svg width="120" height="103" viewBox="0 0 120 103" fill="none" xmlns="http://www.w3.org/2000/svg">
<path d="M81.0697 50.4636L96.4494 31.5777L103.615 39.7034L107.793 9.51156L79.3101 20.7781L89.374 26.0316L65.7649 55.9069L63.9914 57.8518L62.0305 59.6414C59.819 61.5883 57.9454 62.2099 53.4857 62.4896C57.1296 63.9419 59.4653 64.2595 64.2082 63.8188C68.5969 62.8226 70.9793 61.4893 75.1193 57.8058L81.0697 50.4636Z" fill="url(#paint0_linear_9_52)"/>
<path d="M14.6261 40.1414C17.6198 39.4678 19.3037 39.4323 22.7912 40.1414C28.2259 41.4641 30.883 43.0488 35.0072 47.1944C43.1676 56.0465 47.3293 60.4525 50.7829 62.9701L52.8564 64.1673C58.9289 66.7505 62.7875 66.7618 70.5791 64.1673C66.2687 68.605 63.493 70.1444 57.9833 71.4394C49.442 73.6241 43.1634 69.8882 29.5005 54.9948C21.1005 46.4922 16.3431 46.5628 7.79025 54.9948L7.33161 55.398C6.61363 56.162 5.32892 56.4593 4.05089 56.4593C2.12826 56.4593 0 54.6476 0 52.7249C3.17377e-06 51.6818 0.160741 50.5969 0.614779 49.8225C1.12385 48.785 2.20008 47.7144 4.02827 46.2602C7.09488 43.1984 9.41115 41.8538 14.6261 40.1414Z" fill="url(#paint1_linear_9_52)"/>
<path d="M106.203 98.6948C106.768 98.6948 107.273 98.6255 107.719 98.4867C108.175 98.3579 108.542 98.2191 108.819 98.0705C109.097 97.9218 109.256 97.8227 109.295 97.7732L110.797 100.687C110.499 101.182 109.959 101.653 109.176 102.099C108.403 102.545 107.422 102.768 106.233 102.768C105.5 102.768 104.875 102.684 104.36 102.515C103.854 102.347 103.384 102.149 102.948 101.921C102.512 101.703 102.036 101.509 101.521 101.341C101.015 101.172 100.391 101.088 99.6475 101.088C99.043 101.088 98.5079 101.177 98.0421 101.356C97.5763 101.544 97.2096 101.732 96.942 101.921C96.6844 102.109 96.5456 102.223 96.5258 102.263L94.7122 100.122C95.3168 99.4183 96.1244 98.8385 97.1353 98.3826C98.1461 97.9367 99.2957 97.7137 100.584 97.7137C101.407 97.7137 102.12 97.7979 102.725 97.9664C103.329 98.125 103.899 98.2835 104.434 98.4421C104.979 98.6106 105.569 98.6948 106.203 98.6948ZM95.5001 88.2593C95.5001 89.3792 95.728 90.395 96.1839 91.3067C96.6497 92.2086 97.2889 92.9271 98.1015 93.4622C98.9241 93.9974 99.8755 94.2649 100.956 94.2649C102.036 94.2649 102.982 93.9974 103.795 93.4622C104.618 92.9271 105.257 92.2086 105.713 91.3067C106.178 90.395 106.411 89.3792 106.411 88.2593C106.411 87.1395 106.178 86.1286 105.713 85.2268C105.257 84.3249 104.618 83.6065 103.795 83.0713C102.982 82.5262 102.036 82.2537 100.956 82.2537C99.8755 82.2537 98.9241 82.5262 98.1015 83.0713C97.2889 83.6065 96.6497 84.3249 96.1839 85.2268C95.728 86.1286 95.5001 87.1395 95.5001 88.2593ZM90.877 88.2593C90.877 86.8322 91.1297 85.5043 91.6351 84.2754C92.1405 83.0366 92.8491 81.9564 93.7608 81.0347C94.6726 80.1131 95.7429 79.3946 96.9718 78.8793C98.2006 78.3639 99.5286 78.1063 100.956 78.1063C102.403 78.1063 103.736 78.3639 104.954 78.8793C106.183 79.3946 107.249 80.1131 108.151 81.0347C109.062 81.9564 109.766 83.0366 110.261 84.2754C110.767 85.5043 111.02 86.8322 111.02 88.2593C111.02 89.6963 110.777 91.0342 110.291 92.273C109.806 93.5018 109.112 94.5821 108.21 95.5136C107.308 96.4353 106.243 97.1538 105.014 97.6691C103.785 98.1844 102.432 98.4421 100.956 98.4421C99.4493 98.4421 98.0768 98.1844 96.838 97.6691C95.6091 97.1538 94.5487 96.4353 93.6568 95.5136C92.7649 94.5821 92.0761 93.5018 91.5905 92.273C91.1148 91.0342 90.877 89.6963 90.877 88.2593Z" fill="#093255"/>
<path d="M83.9135 78.463H88.3583V90.5188C88.3583 92.1342 88.0412 93.5365 87.4069 94.7257C86.7726 95.9051 85.8658 96.8218 84.6865 97.4758C83.5072 98.12 82.0999 98.4421 80.4648 98.4421C78.8197 98.4421 77.4025 98.12 76.2133 97.4758C75.024 96.8218 74.1123 95.9051 73.478 94.7257C72.8537 93.5365 72.5415 92.1342 72.5415 90.5188V78.463H76.9714V90.281C76.9714 91.1729 77.1101 91.9261 77.3876 92.5405C77.675 93.155 78.0813 93.6208 78.6066 93.9379C79.1318 94.2451 79.7512 94.3987 80.4648 94.3987C81.1684 94.3987 81.7779 94.2451 82.2932 93.9379C82.8085 93.6208 83.2049 93.155 83.4824 92.5405C83.7698 91.9261 83.9135 91.1729 83.9135 90.281V78.463Z" fill="#093255"/>
<path d="M58.667 78.463H63.1117V94.1906H70.2323V98.0853H58.667V78.463Z" fill="#093255"/>
<path d="M44.0918 78.463H48.5365V94.1906H55.6571V98.0853H44.0918V78.463Z" fill="#093255"/>
<path d="M36.3852 78.463H40.83V90.5188C40.83 92.1342 40.5128 93.5365 39.8786 94.7257C39.2443 95.9051 38.3375 96.8218 37.1582 97.4758C35.9789 98.12 34.5716 98.4421 32.9364 98.4421C31.2913 98.4421 29.8742 98.12 28.6849 97.4758C27.4957 96.8218 26.584 95.9051 25.9497 94.7257C25.3254 93.5365 25.0132 92.1342 25.0132 90.5188V78.463H29.4431V90.281C29.4431 91.1729 29.5818 91.9261 29.8593 92.5405C30.1467 93.155 30.553 93.6208 31.0783 93.9379C31.6035 94.2451 32.2229 94.3987 32.9364 94.3987C33.6401 94.3987 34.2495 94.2451 34.7649 93.9379C35.2802 93.6208 35.6766 93.155 35.9541 92.5405C36.2415 91.9261 36.3852 91.1729 36.3852 90.281V78.463Z" fill="#093255"/>
<path d="M13.5439 82.3579H8.86133V78.4631H22.6564V82.3579H17.9887V98.0854H13.5439V82.3579Z" fill="#093255"/>
<defs>
<linearGradient id="paint0_linear_9_52" x1="107.885" y1="9.58441" x2="61.0464" y2="68.5004" gradientUnits="userSpaceOnUse">
<stop stop-color="#37B78C"/>
<stop offset="0.254077" stop-color="#27AB8E"/>
<stop offset="0.479586" stop-color="#289791"/>
<stop offset="0.698507" stop-color="#20828F"/>
<stop offset="1" stop-color="#086781"/>
</linearGradient>
<linearGradient id="paint1_linear_9_52" x1="70.5791" y1="55.8187" x2="0" y2="55.8187" gradientUnits="userSpaceOnUse">
<stop stop-color="#006D89"/>
<stop offset="0.283095" stop-color="#105D7B"/>
<stop offset="0.545939" stop-color="#15587C"/>
<stop offset="0.741633" stop-color="#14557B"/>
<stop offset="1" stop-color="#144670"/>
</linearGradient>
</defs>
</svg>
